<svg width="48.000000" height="48.000000" viewBox="0 0 48 48" fill="none" xmlns="http://www.w3.org/2000/svg" xmlns:xlink="http://www.w3.org/1999/xlink">
	<desc>
			Created with Pixso.
	</desc>
	<defs/>
	<path id="Vector" d="M24 0C27.18 0 30.23 1.26 32.48 3.51C34.73 5.76 36 8.81 36 12C36 15.18 34.73 18.23 32.48 20.48C30.23 22.73 27.18 24 24 24C20.81 24 17.76 22.73 15.51 20.48C13.26 18.23 12 15.18 12 12C12 8.81 13.26 5.76 15.51 3.51C17.76 1.26 20.81 0 24 0ZM24 30C37.25 30 48 35.37 48 42L48 48L0 48L0 42C0 35.37 10.74 30 24 30Z" fill="#E29038" fill-opacity="1.000000" fill-rule="nonzero"/>
</svg>
