<svg width="18.000000" height="18.964912" viewBox="0 0 18 18.9649" fill="none" xmlns="http://www.w3.org/2000/svg" xmlns:xlink="http://www.w3.org/1999/xlink">
	<desc>
			Created with Pixso.
	</desc>
	<defs/>
	<path id="Vector" d="M9 0C10.19 0 11.33 0.49 12.18 1.38C13.02 2.27 13.5 3.48 13.5 4.74C13.5 5.99 13.02 7.2 12.18 8.09C11.33 8.98 10.19 9.48 9 9.48C7.8 9.48 6.66 8.98 5.81 8.09C4.97 7.2 4.5 5.99 4.5 4.74C4.5 3.48 4.97 2.27 5.81 1.38C6.66 0.49 7.8 0 9 0ZM9 11.85C13.97 11.85 18 13.97 18 16.59L18 18.96L0 18.96L0 16.59C0 13.97 4.02 11.85 9 11.85Z" fill="#FFFFFF" fill-opacity="1.000000" fill-rule="nonzero"/>
</svg>
