<svg width="17.000000" height="15.000000" viewBox="0 0 17 15" fill="none" xmlns="http://www.w3.org/2000/svg" xmlns:xlink="http://www.w3.org/1999/xlink">
	<desc>
			Created with Pixso.
	</desc>
	<defs/>
	<path id="Vector" d="M8.5 4.42L8.5 7.5L10.67 9.42" stroke="#FFFFFF" stroke-opacity="1.000000" stroke-width="1.500000" stroke-linejoin="round" stroke-linecap="round"/>
	<path id="Vector" d="M1.82 3.55L1.16 3.55C1.16 3.87 1.45 4.12 1.81 4.13L1.82 3.55ZM4.03 4.14C4.39 4.14 4.69 3.88 4.69 3.56C4.69 3.24 4.4 2.98 4.04 2.98L4.03 4.14ZM2.46 1.59C2.46 1.27 2.16 1.01 1.8 1.01C1.44 1.02 1.15 1.28 1.15 1.59L2.46 1.59ZM1.3 7.5C1.3 7.18 1.01 6.92 0.65 6.92C0.29 6.92 0 7.18 0 7.5L1.3 7.5ZM12.75 13.99C13.06 13.83 13.16 13.48 12.98 13.2C12.8 12.93 12.4 12.83 12.09 12.99L12.75 13.99ZM14.73 10.67C14.54 10.94 14.65 11.3 14.96 11.46C15.28 11.62 15.68 11.52 15.86 11.25L14.73 10.67ZM2.51 2.17C2.26 2.39 2.26 2.75 2.51 2.98C2.76 3.21 3.18 3.21 3.43 2.99L2.51 2.17ZM14.48 2.22C11.15 -0.72 5.77 -0.75 2.46 2.17L3.38 2.98C6.17 0.52 10.72 0.54 13.55 3.03L14.48 2.22ZM2.46 2.17L1.35 3.14L2.28 3.96L3.38 2.98L2.46 2.17ZM1.81 4.13L4.03 4.14L4.04 2.98L1.82 2.97L1.81 4.13ZM2.47 3.55L2.46 1.59L1.15 1.59L1.16 3.55L2.47 3.55ZM8.5 1.15C12.47 1.15 15.69 3.99 15.69 7.5L17 7.5C17 3.35 13.19 0 8.5 0L8.5 1.15ZM8.5 13.84C4.52 13.84 1.3 11 1.3 7.5L0 7.5C0 11.64 3.8 15 8.5 15L8.5 13.84ZM12.09 12.99C11.03 13.53 9.81 13.84 8.5 13.84L8.5 15C10.04 15 11.49 14.63 12.75 13.99L12.09 12.99ZM15.69 7.5C15.69 8.65 15.34 9.73 14.73 10.67L15.86 11.25C16.58 10.14 17 8.86 17 7.5L15.69 7.5ZM3.43 2.99C4.73 1.85 6.52 1.15 8.5 1.15L8.5 0C6.16 0 4.05 0.82 2.51 2.17L3.43 2.99Z" fill="#1C274C" fill-opacity="1.000000" fill-rule="nonzero"/>
	<path id="Vector" d="M14.28 3.72C15.16 4.78 15.69 6.08 15.69 7.5C15.69 8.3 15.52 9.08 15.2 9.79C15.07 10.09 14.91 10.39 14.73 10.67C14.7 10.7 14.68 10.74 14.67 10.78C14.57 11.03 14.69 11.32 14.96 11.46C15.28 11.62 15.68 11.52 15.86 11.25C16.4 10.42 16.77 9.49 16.92 8.5C16.97 8.17 17 7.83 17 7.5C17 7.16 16.97 6.82 16.92 6.5C16.72 5.15 16.11 3.92 15.21 2.9C14.94 2.59 14.63 2.29 14.3 2.02C14.11 1.86 13.91 1.71 13.7 1.57C12.51 0.75 11.07 0.21 9.5 0.05C9.17 0.01 8.83 0 8.5 0C8.48 0 8.46 3.81e-5 8.45 0C8.13 -0.01 7.81 0.01 7.5 0.04C6.06 0.18 4.66 0.64 3.45 1.42C3.4 1.45 3.34 1.49 3.29 1.52C3.28 1.53 3.27 1.53 3.26 1.54C3.06 1.68 2.87 1.82 2.69 1.97C2.69 1.97 2.68 1.97 2.68 1.98C2.61 2.04 2.53 2.1 2.46 2.16L2.46 2.16L2.46 1.98L2.46 1.59C2.46 1.4 2.35 1.23 2.2 1.13C2.19 1.12 2.17 1.12 2.16 1.11C2.06 1.05 1.93 1.01 1.8 1.01C1.44 1.02 1.15 1.27 1.15 1.59L1.15 1.59L1.15 1.97L1.15 1.98L1.16 2.59L1.16 3.55L1.16 3.55L1.16 3.55C1.16 3.87 1.45 4.12 1.81 4.13L1.81 4.13L1.82 4.13L2.7 4.13L2.81 4.13L3.24 4.13L3.47 4.13L3.59 4.13L4.03 4.14C4.39 4.14 4.69 3.88 4.69 3.56C4.69 3.48 4.67 3.39 4.63 3.32C4.62 3.31 4.62 3.3 4.61 3.29C4.5 3.11 4.29 2.98 4.04 2.98L4.04 2.98L4.04 2.98L3.47 2.98L3.44 2.98L3.44 2.98C3.45 2.97 3.46 2.97 3.47 2.96C3.84 2.64 4.25 2.35 4.69 2.11C5.78 1.51 7.07 1.16 8.45 1.15C10.29 1.16 12.14 1.78 13.55 3.03L13.58 3.01C13.83 3.23 14.07 3.47 14.28 3.72ZM0.07 8.5C0.02 8.17 0 7.83 0 7.5C0 7.18 0.29 6.92 0.65 6.92C1.01 6.92 1.3 7.18 1.3 7.5L1.3 7.5C1.3 11 4.52 13.84 8.5 13.84C9.81 13.84 11.03 13.53 12.09 12.99C12.4 12.83 12.8 12.93 12.98 13.2C13.14 13.44 13.08 13.73 12.87 13.91C12.83 13.94 12.79 13.97 12.75 13.99C12.45 14.14 12.14 14.28 11.82 14.4C11.09 14.67 10.31 14.86 9.5 14.94C9.17 14.98 8.83 15 8.5 15C8.16 15 7.82 14.98 7.5 14.94C3.64 14.55 0.58 11.88 0.07 8.5Z" fill="#FFFFFF" fill-opacity="1.000000" fill-rule="evenodd"/>
</svg>
