<svg width="19.000000" height="17.000000" viewBox="0 0 19 17" fill="none" xmlns="http://www.w3.org/2000/svg" xmlns:xlink="http://www.w3.org/1999/xlink">
	<desc>
			Created with Pixso.
	</desc>
	<defs/>
	<path id="Vector" d="M17.89 5.32C17.89 4.17 17.89 3.59 17.59 3.18C17.46 3 17.3 2.85 17.1 2.73C16.71 2.49 16.19 2.46 15.24 2.45C15.24 2.69 15.24 2.94 15.24 3.2L15.24 3.27L15.24 4.3L16.12 4.3C16.49 4.3 16.79 4.57 16.79 4.91C16.79 5.25 16.49 5.53 16.12 5.53L15.24 5.53L15.24 6.75L16.12 6.75C16.49 6.75 16.79 7.03 16.79 7.37C16.79 7.71 16.49 7.98 16.12 7.98L15.24 7.98L15.24 9.21L16.12 9.21C16.49 9.21 16.79 9.49 16.79 9.83C16.79 10.17 16.49 10.44 16.12 10.44L15.24 10.44L15.24 15.77L13.91 15.77L13.91 3.27C13.91 1.73 13.91 0.95 13.4 0.47C12.88 0 12.05 0 10.38 0L8.61 0C6.94 0 6.11 0 5.59 0.47C5.08 0.95 5.08 1.73 5.08 3.27L5.08 15.77L3.75 15.77L3.75 10.44L2.87 10.44C2.5 10.44 2.2 10.17 2.2 9.83C2.2 9.49 2.5 9.21 2.87 9.21L3.75 9.21L3.75 7.98L2.87 7.98C2.5 7.98 2.2 7.71 2.2 7.37C2.2 7.03 2.5 6.75 2.87 6.75L3.75 6.75L3.75 5.53L2.87 5.53C2.5 5.53 2.2 5.25 2.2 4.91C2.2 4.57 2.5 4.3 2.87 4.3L3.75 4.3L3.75 3.27L3.75 3.2C3.75 2.94 3.75 2.69 3.75 2.45C2.8 2.46 2.28 2.49 1.89 2.73C1.69 2.85 1.53 3 1.4 3.18C1.1 3.59 1.1 4.17 1.1 5.32L1.1 15.77L0.66 15.77C0.29 15.77 0 16.04 0 16.38C0 16.72 0.29 17 0.66 17L18.33 17C18.7 17 19 16.72 19 16.38C19 16.04 18.7 15.77 18.33 15.77L17.89 15.77L17.89 5.32ZM7.06 7.98C7.06 7.64 7.36 7.37 7.73 7.37L11.26 7.37C11.63 7.37 11.93 7.64 11.93 7.98C11.93 8.32 11.63 8.6 11.26 8.6L7.73 8.6C7.36 8.6 7.06 8.32 7.06 7.98ZM7.06 10.44C7.06 10.1 7.36 9.83 7.73 9.83L11.26 9.83C11.63 9.83 11.93 10.1 11.93 10.44C11.93 10.78 11.63 11.06 11.26 11.06L7.73 11.06C7.36 11.06 7.06 10.78 7.06 10.44ZM9.5 13.31C9.86 13.31 10.16 13.58 10.16 13.92L10.16 15.77L8.83 15.77L8.83 13.92C8.83 13.58 9.13 13.31 9.5 13.31ZM7.06 3.48C7.06 3.14 7.36 2.86 7.73 2.86L11.26 2.86C11.63 2.86 11.93 3.14 11.93 3.48C11.93 3.82 11.63 4.09 11.26 4.09L7.73 4.09C7.36 4.09 7.06 3.82 7.06 3.48ZM7.06 5.93C7.06 5.6 7.36 5.32 7.73 5.32L11.26 5.32C11.63 5.32 11.93 5.6 11.93 5.93C11.93 6.27 11.63 6.55 11.26 6.55L7.73 6.55C7.36 6.55 7.06 6.27 7.06 5.93Z" fill="#FFFFFF" fill-opacity="1.000000" fill-rule="evenodd"/>
</svg>
