<svg width="21.000122" height="18.468922" viewBox="0 0 21.0001 18.4689" fill="none" xmlns="http://www.w3.org/2000/svg" xmlns:xlink="http://www.w3.org/1999/xlink">
	<desc>
			Created with Pixso.
	</desc>
	<defs/>
	<path id="Vector" d="M17.94 13.14L13.6 15.04L11.92 11.91L16.27 10.01L17.94 13.14ZM16.89 5.18L20.48 11.87L18.31 12.82L14.72 6.13L16.89 5.18ZM14.98 15.57L21 13.04L20.85 12.51L14.33 15.24C14.02 15.15 13.68 15.13 13.34 15.2C13.29 15.22 13.23 15.23 13.17 15.25L8.69 7.6C9.25 7.05 8.73 5.86 7.64 5.98C7.54 5.99 7.5 6 7.42 6.01C6.39 5.95 5.35 5.64 4.42 5.19C4.41 5.09 4.41 5 4.4 4.9C4.35 4.09 3.83 3.38 2.86 3.33C2.04 3.29 1.07 3.92 1.12 4.73C1.25 6.64 1.25 7.1 1.24 8.93L1.22 8.93C1.23 9.18 1.25 9.58 1.26 9.82C1.28 10.2 1.43 10.51 1.65 10.73C1.65 10.74 1.65 10.74 1.65 10.74C1.91 11.11 1.89 11.49 2.1 11.88C1.72 13.53 0.5 15.18 0.03 16.81C-0.31 18.01 1.74 18.52 2.08 17.32C2.56 15.68 4.01 14.01 4.4 12.35C4.42 12.26 4.42 12.18 4.42 12.1C5.7 13.29 6.55 15.23 6.72 16.92C6.83 18.15 8.96 18.16 8.84 16.92C8.57 14.1 6.98 11.36 4.54 9.67C4.53 9.53 4.52 9.38 4.51 9.24L4.52 9.24C4.53 8.09 4.53 8.48 4.5 7.33C5.38 7.64 6.31 7.83 7.24 7.89L7.24 7.92C7.57 7.92 7.78 7.89 8.1 7.86C8.16 7.85 8.22 7.84 8.27 7.82L12.61 15.53C12.08 15.92 11.82 16.56 11.99 17.19C12.22 18.08 13.21 18.63 14.19 18.42C15.17 18.21 15.78 17.32 15.55 16.43C15.46 16.08 15.25 15.79 14.98 15.57ZM13.91 17.35C13.58 17.42 13.24 17.24 13.17 16.94C13.09 16.64 13.29 16.34 13.62 16.27C13.95 16.2 14.29 16.38 14.37 16.68C14.45 16.98 14.24 17.28 13.91 17.35ZM14.36 6.45L16.03 9.58L11.69 11.48L10.01 8.35L14.36 6.45ZM2.82 0C3.71 0 4.42 0.64 4.42 1.44C4.42 2.23 3.71 2.88 2.82 2.88C1.94 2.88 1.23 2.23 1.23 1.44C1.23 0.64 1.94 0 2.82 0Z" fill="#FFFFFF" fill-opacity="1.000000" fill-rule="nonzero"/>
</svg>
