<svg width="19.612061" height="17.579102" viewBox="0 0 19.6121 17.5791" fill="none" xmlns="http://www.w3.org/2000/svg" xmlns:xlink="http://www.w3.org/1999/xlink">
	<desc>
			Created with Pixso.
	</desc>
	<defs>
		<clipPath id="clip21_225">
			<rect id="search 1" rx="0.000000" width="18.611965" height="16.579073" transform="translate(0.500000 0.500000)" fill="white" fill-opacity="0"/>
		</clipPath>
	</defs>
	<rect id="search 1" rx="0.000000" width="18.611965" height="16.579073" transform="translate(0.500000 0.500000)" fill="#FFFFFF" fill-opacity="0"/>
	<g clip-path="url(#clip21_225)">
		<path id="Vector" d="M19.47 16.53L14.53 12.1C14.44 12.02 14.33 11.98 14.21 11.98L13.81 11.98C15.13 10.71 15.93 9.01 15.93 7.14C15.93 3.19 12.36 0 7.96 0C3.56 0 0 3.19 0 7.14C0 11.08 3.56 14.28 7.96 14.28C10.05 14.28 11.95 13.56 13.37 12.38L13.37 12.73C13.37 12.84 13.42 12.95 13.5 13.02L18.44 17.45C18.62 17.62 18.91 17.62 19.09 17.45L19.47 17.11C19.65 16.95 19.65 16.69 19.47 16.53ZM7.96 13.18C4.24 13.18 1.22 10.48 1.22 7.14C1.22 3.8 4.24 1.09 7.96 1.09C11.69 1.09 14.7 3.8 14.7 7.14C14.7 10.48 11.69 13.18 7.96 13.18Z" fill="#C4C4C4" fill-opacity="1.000000" fill-rule="nonzero"/>
	</g>
</svg>
