<svg width="22.413574" height="22.601654" viewBox="0 0 22.4136 22.6017" fill="none" xmlns="http://www.w3.org/2000/svg" xmlns:xlink="http://www.w3.org/1999/xlink">
	<desc>
			Created with Pixso.
	</desc>
	<defs>
		<clipPath id="clip21_122">
			<rect id="trash 1" rx="0.000000" width="21.413675" height="21.601665" transform="matrix(-1 0 0 1 22.9136 0.5)" fill="white" fill-opacity="0"/>
		</clipPath>
	</defs>
	<rect id="trash 1" rx="0.000000" width="21.413675" height="21.601665" transform="matrix(-1 0 0 1 22.9136 0.5)" fill="#FFFFFF" fill-opacity="0"/>
	<g clip-path="url(#clip21_122)">
		<path id="Vector" d="M0.4 2.82L5.6 2.82L7.28 0.84C7.5 0.58 7.79 0.37 8.13 0.22C8.46 0.07 8.83 0 9.2 0L13.2 0C13.58 0 13.94 0.07 14.28 0.22C14.61 0.37 14.9 0.58 15.12 0.84L16.81 2.82L22.01 2.82C22.11 2.82 22.22 2.86 22.29 2.92C22.37 2.99 22.41 3.08 22.41 3.17L22.41 3.88C22.41 3.97 22.37 4.06 22.29 4.13C22.22 4.2 22.11 4.23 22.01 4.23L21.06 4.23L19.4 20.67C19.35 21.19 19.07 21.68 18.63 22.04C18.19 22.4 17.61 22.6 17.01 22.6L5.39 22.6C4.79 22.6 4.22 22.4 3.77 22.04C3.33 21.68 3.06 21.19 3 20.67L1.34 4.23L0.4 4.23C0.29 4.23 0.19 4.2 0.11 4.13C0.04 4.06 0 3.97 0 3.88L0 3.17C0 3.08 0.04 2.99 0.11 2.92C0.19 2.86 0.29 2.82 0.4 2.82ZM13.84 1.69C13.77 1.6 13.67 1.53 13.56 1.48C13.45 1.43 13.33 1.41 13.2 1.41L9.2 1.41C9.08 1.41 8.95 1.43 8.84 1.48C8.73 1.53 8.63 1.6 8.56 1.69L7.6 2.82L14.8 2.82L13.84 1.69ZM4.6 20.54C4.61 20.72 4.71 20.88 4.85 21C5 21.12 5.19 21.18 5.39 21.18L17.01 21.18C17.21 21.18 17.4 21.12 17.55 21C17.7 20.88 17.79 20.72 17.81 20.54L19.46 4.23L2.95 4.23L4.6 20.54Z" fill="#FEAF00" fill-opacity="1.000000" fill-rule="nonzero"/>
	</g>
</svg>
