<svg width="25.187500" height="37.000000" viewBox="0 0 25.1875 37" fill="none" xmlns="http://www.w3.org/2000/svg" xmlns:xlink="http://www.w3.org/1999/xlink">
	<desc>
			Created with Pixso.
	</desc>
	<defs/>
	<path id="Vector" d="M22.66 32.37L2.51 32.37C1.12 32.37 0 33.41 0 34.68C0 35.96 1.12 37 2.51 37L22.66 37C24.05 37 25.18 35.96 25.18 34.68C25.18 33.41 24.05 32.37 22.66 32.37Z" fill="#FFFFFF" fill-opacity="1.000000" fill-rule="nonzero"/>
	<path id="Vector" d="M12.59 30.06C13.41 30.06 14.17 29.69 14.64 29.08C15.6 27.85 23.92 16.83 23.92 9.94C23.92 4.46 18.84 0 12.59 0C6.34 0 1.25 4.46 1.25 9.94C1.25 16.83 9.58 27.85 10.53 29.08C11 29.69 11.77 30.06 12.59 30.06ZM8.81 10.4C8.81 8.49 10.5 6.93 12.59 6.93C14.68 6.93 16.37 8.49 16.37 10.4C16.37 12.32 14.68 13.87 12.59 13.87C10.5 13.87 8.81 12.32 8.81 10.4Z" fill="#FFFFFF" fill-opacity="1.000000" fill-rule="nonzero"/>
</svg>
