<svg width="42.000000" height="46.000000" viewBox="0 0 42 46" fill="none" xmlns="http://www.w3.org/2000/svg" xmlns:xlink="http://www.w3.org/1999/xlink">
	<desc>
			Created with Pixso.
	</desc>
	<defs/>
	<path id="Vector" d="M21 1.91C17.19 1.91 13.47 3.15 10.3 5.46C7.13 7.78 4.67 11.07 3.21 14.93C1.75 18.78 1.37 23.02 2.11 27.11C2.86 31.2 4.69 34.95 7.38 37.9C10.08 40.85 13.51 42.86 17.24 43.67C20.97 44.49 24.84 44.07 28.36 42.47C31.88 40.88 34.89 38.18 37 34.71C39.12 31.24 40.25 27.16 40.25 23C40.26 20.22 39.77 17.48 38.8 14.91C37.84 12.35 36.42 10.02 34.63 8.06C32.84 6.1 30.72 4.55 28.38 3.49C26.03 2.44 23.53 1.9 21 1.91ZM35.08 15.33L30.8 15.33C30.29 12.64 29.4 10.05 28.17 7.66C31.14 9.37 33.56 12.05 35.08 15.33ZM36.75 23C36.73 24.29 36.59 25.57 36.31 26.83L31.32 26.83C31.41 25.58 31.5 24.34 31.5 23C31.5 21.65 31.41 20.41 31.32 19.16L36.31 19.16C36.59 20.42 36.73 21.7 36.75 23ZM5.25 23C5.26 21.7 5.4 20.42 5.68 19.16L10.67 19.16C10.58 20.41 10.5 21.65 10.5 23C10.5 24.34 10.58 25.58 10.67 26.83L5.68 26.83C5.4 25.57 5.26 24.29 5.25 23ZM14 23C14 21.65 14.08 20.41 14.17 19.16L19.25 19.16L19.25 26.83L14.17 26.83C14.08 25.58 14 24.34 14 23ZM22.75 6.42C23.83 7.39 24.73 8.6 25.37 9.96C26.21 11.65 26.82 13.46 27.21 15.33L22.75 15.33L22.75 6.42ZM19.25 6.42L19.25 15.33L14.78 15.33C15.17 13.46 15.78 11.65 16.62 9.96C17.26 8.6 18.16 7.39 19.25 6.42ZM19.25 30.66L19.25 39.57C18.16 38.6 17.26 37.39 16.62 36.03C15.78 34.34 15.17 32.53 14.78 30.66L19.25 30.66ZM22.75 39.57L22.75 30.66L27.21 30.66C26.82 32.53 26.21 34.34 25.37 36.03C24.73 37.39 23.83 38.6 22.75 39.57ZM22.75 26.83L22.75 19.16L27.82 19.16C27.91 20.41 28 21.65 28 23C28 24.34 27.91 25.58 27.82 26.83L22.75 26.83ZM13.82 7.66C12.59 10.05 11.7 12.64 11.2 15.33L6.91 15.33C8.43 12.05 10.85 9.37 13.82 7.66ZM6.91 30.66L11.2 30.66C11.7 33.35 12.59 35.94 13.82 38.33C10.85 36.62 8.43 33.94 6.91 30.66ZM28.17 38.33C29.4 35.94 30.29 33.35 30.8 30.66L35.08 30.66C33.56 33.94 31.14 36.62 28.17 38.33Z" fill="#FFFFFF" fill-opacity="1.000000" fill-rule="nonzero"/>
</svg>
