<svg width="38.000000" height="38.000000" viewBox="0 0 38 38" fill="none" xmlns="http://www.w3.org/2000/svg" xmlns:xlink="http://www.w3.org/1999/xlink">
	<desc>
			Created with Pixso.
	</desc>
	<defs>
		<clipPath id="clip4_21">
			<rect id="mdi:password" width="38.000000" height="38.000000" fill="white" fill-opacity="0"/>
		</clipPath>
	</defs>
	<rect id="mdi:password" width="38.000000" height="38.000000" fill="#FFFFFF" fill-opacity="0"/>
	<g clip-path="url(#clip4_21)">
		<path id="Vector" d="M19 26.91C19.84 26.91 20.64 26.58 21.23 25.98C21.83 25.39 22.16 24.58 22.16 23.75C22.16 22.91 21.83 22.1 21.23 21.51C20.64 20.91 19.84 20.58 19 20.58C18.16 20.58 17.35 20.91 16.76 21.51C16.16 22.1 15.83 22.91 15.83 23.75C15.83 24.58 16.16 25.39 16.76 25.98C17.35 26.58 18.16 26.91 19 26.91ZM28.5 12.66C29.34 12.66 30.14 13 30.73 13.59C31.33 14.18 31.66 14.99 31.66 15.83L31.66 31.66C31.66 32.5 31.33 33.31 30.73 33.9C30.14 34.49 29.34 34.83 28.5 34.83L9.5 34.83C8.66 34.83 7.85 34.49 7.26 33.9C6.66 33.31 6.33 32.5 6.33 31.66L6.33 15.83C6.33 14.99 6.66 14.18 7.26 13.59C7.85 13 8.66 12.66 9.5 12.66L11.08 12.66L11.08 9.5C11.08 7.4 11.91 5.38 13.4 3.9C14.88 2.41 16.9 1.58 19 1.58C20.03 1.58 21.06 1.78 22.02 2.18C22.99 2.58 23.86 3.16 24.59 3.9C25.33 4.63 25.91 5.5 26.31 6.47C26.71 7.43 26.91 8.46 26.91 9.5L26.91 12.66L28.5 12.66ZM19 4.75C17.74 4.75 16.53 5.25 15.64 6.14C14.75 7.03 14.25 8.24 14.25 9.5L14.25 12.66L23.75 12.66L23.75 9.5C23.75 8.24 23.24 7.03 22.35 6.14C21.46 5.25 20.26 4.75 19 4.75Z" fill="#FFFFFF" fill-opacity="1.000000" fill-rule="nonzero"/>
	</g>
</svg>
