<svg width="38.000000" height="37.000000" viewBox="0 0 38 37" fill="none" xmlns="http://www.w3.org/2000/svg" xmlns:xlink="http://www.w3.org/1999/xlink">
	<desc>
			Created with Pixso.
	</desc>
	<defs/>
	<path id="Vector" d="M34.2 7.78L28.5 7.78L28.5 3.89C28.5 1.74 26.79 0 24.7 0L13.3 0C11.2 0 9.5 1.74 9.5 3.89L9.5 7.78L3.8 7.78C1.7 7.78 0 9.53 0 11.68L0 17.52L38 17.52L38 11.68C38 9.53 36.29 7.78 34.2 7.78ZM13.3 3.89L24.7 3.89L24.7 7.78L13.3 7.78L13.3 3.89ZM22.8 23.36L15.2 23.36L15.2 19.47L0 19.47L0 33.1C0 35.25 1.7 37 3.8 37L34.2 37C36.29 37 38 35.25 38 33.1L38 19.47L22.8 19.47L22.8 23.36Z" fill="#FFFFFF" fill-opacity="1.000000" fill-rule="nonzero"/>
</svg>
